<?xml version="1.0" standalone="no"?>
<!DOCTYPE svg PUBLIC "-//W3C//DTD SVG 20010904//EN"
 "http://www.w3.org/TR/2001/REC-SVG-20010904/DTD/svg10.dtd">
<svg version="1.0" xmlns="http://www.w3.org/2000/svg"
 width="1200.000000pt" height="1200.000000pt" viewBox="0 0 1200.000000 1200.000000"
 preserveAspectRatio="xMidYMid meet">
<metadata>
Created by potrace 1.11, written by Peter Selinger 2001-2013
</metadata>
<g transform="translate(0.000000,1200.000000) scale(0.100000,-0.100000)"
fill="#000000" stroke="none">
<path d="M5938 10905 c-30 -18 -82 -48 -114 -66 -33 -18 -140 -78 -239 -134
-99 -56 -200 -113 -225 -127 -41 -23 -775 -438 -1230 -696 -102 -58 -248 -141
-325 -184 -77 -44 -147 -83 -155 -88 -8 -5 -98 -56 -200 -113 -249 -140 -391
-220 -411 -232 -9 -5 -36 -21 -60 -34 -24 -13 -141 -79 -259 -146 -118 -67
-235 -133 -260 -147 -25 -14 -130 -74 -235 -133 -303 -172 -287 -163 -465
-263 l-125 -70 -3 -2474 -2 -2474 67 -38 c38 -21 91 -51 118 -66 28 -15 149
-83 270 -152 121 -69 240 -136 265 -150 25 -14 74 -42 110 -63 36 -20 90 -51
120 -68 30 -16 168 -94 305 -172 241 -137 532 -301 625 -353 25 -14 62 -36 82
-49 21 -12 39 -23 42 -23 2 0 80 -43 172 -96 93 -52 207 -117 254 -144 47 -26
184 -104 305 -172 217 -123 577 -327 665 -376 25 -14 139 -79 253 -144 115
-65 211 -118 213 -118 2 0 28 -16 58 -35 30 -19 57 -35 59 -35 2 0 91 -49 198
-109 171 -97 196 -108 210 -95 8 8 18 14 21 14 6 0 481 267 518 290 8 5 31 18
50 28 19 10 134 75 255 144 237 134 277 157 400 226 44 24 125 70 180 102 55
32 118 68 140 80 22 12 144 81 270 153 127 72 248 140 270 152 22 12 191 107
375 212 184 104 362 204 395 223 33 18 65 36 70 40 6 4 37 22 70 40 33 18 141
79 240 135 351 200 631 358 695 393 36 19 81 45 100 57 19 12 40 24 45 26 6 2
66 35 133 74 l122 70 0 2472 0 2471 -57 33 c-32 17 -74 41 -93 52 -60 35 -183
104 -220 123 -19 11 -37 21 -40 24 -3 3 -21 13 -40 24 -19 10 -121 67 -227
127 -106 60 -209 118 -230 130 -21 12 -222 126 -448 254 -481 272 -493 279
-565 318 -30 16 -80 44 -110 62 -30 18 -73 43 -95 55 -22 12 -107 61 -190 108
-82 47 -170 96 -195 110 -25 14 -74 42 -110 62 -36 20 -85 49 -110 62 -107 60
-590 333 -643 364 -32 19 -60 34 -62 34 -3 0 -34 18 -70 40 -36 22 -67 40 -70
40 -2 0 -46 24 -97 54 -102 59 -361 205 -448 254 -30 16 -93 52 -140 79 -47
27 -92 52 -100 55 -9 3 -41 -9 -72 -27z"/>
</g>
</svg>
